<svg width="390" height="844" viewBox="0 0 390 844" fill="none" xmlns="http://www.w3.org/2000/svg">
  <!-- Background -->
  <rect width="390" height="844" fill="#1D232A"/>
  
  <!-- Ambient Glow -->
  <circle cx="195" cy="0" r="150" fill="#6419E6" fill-opacity="0.15" filter="blur(80px)"/>

  <!-- Header -->
  <rect width="390" height="72" fill="#1D232A" fill-opacity="0.8"/>
  <line x1="0" y1="72" x2="390" y2="72" stroke="#2A323C"/>
  
  <rect x="16" y="16" width="40" height="40" rx="12" fill="#6419E6"/>
  <text x="28" y="42" fill="white" font-family="Geist Sans, sans-serif" font-weight="bold" font-size="18">M</text>
  
  <text x="68" y="32" fill="white" font-family="Geist Sans, sans-serif" font-weight="bold" font-size="14">Merchant Support</text>
  <circle cx="72" cy="46" r="3" fill="#36D399"/>
  <text x="80" y="50" fill="#A6ADBB" font-family="Geist Sans, sans-serif" font-size="10" letter-spacing="0.05em">AGENT ACTIVE</text>
  
  <text x="374" y="30" fill="#A6ADBB" font-family="Geist Sans, sans-serif" font-size="10" text-anchor="end">BALANCE DUE</text>
  <text x="374" y="50" fill="white" font-family="Geist Sans, sans-serif" font-weight="bold" font-size="14" text-anchor="end">USD 1,250.00</text>

  <!-- Chat Messages -->
  
  <!-- Agent Message -->
  <rect x="16" y="140" width="280" height="80" rx="16" fill="#2A323C"/>
  <text x="32" y="168" fill="#A6ADBB" font-family="Geist Sans, sans-serif" font-size="14">
    <tspan x="32" dy="0">I understand things can be tight.</tspan>
    <tspan x="32" dy="20">We want to find a solution that</tspan>
    <tspan x="32" dy="20">works for you.</tspan>
  </text>
  <text x="16" y="235" fill="#586170" font-family="Geist Sans, sans-serif" font-size="9">DRAGUN AI</text>

  <!-- User Message -->
  <rect x="154" y="260" width="220" height="44" rx="16" fill="#6419E6"/>
  <text x="170" y="287" fill="white" font-family="Geist Sans, sans-serif" font-size="14">I can pay half on Friday.</text>
  <text x="374" y="318" fill="#586170" font-family="Geist Sans, sans-serif" font-size="9" text-anchor="end">SENT</text>

  <!-- Action Chips -->
  <rect x="16" y="680" width="80" height="28" rx="14" fill="#2A323C" stroke="#3F4957"/>
  <text x="56" y="698" fill="#A6ADBB" font-family="Geist Sans, sans-serif" font-size="11" text-anchor="middle">Pay Now</text>
  
  <rect x="104" y="680" width="110" height="28" rx="14" fill="#2A323C" stroke="#3F4957"/>
  <text x="159" y="698" fill="#A6ADBB" font-family="Geist Sans, sans-serif" font-size="11" text-anchor="middle">Friday Payment</text>

  <!-- Input Area -->
  <line x1="0" y1="730" x2="390" y2="730" stroke="#2A323C"/>
  <rect x="16" y="746" width="358" height="48" rx="12" fill="#2A323C" stroke="#3F4957"/>
  <text x="32" y="775" fill="#586170" font-family="Geist Sans, sans-serif" font-size="14">Type your message...</text>
  
  <rect x="330" y="754" width="36" height="32" rx="8" fill="#6419E6"/>
  <path d="M342 770L348 764L354 770" stroke="white" stroke-width="2" stroke-linecap="round" stroke-linejoin="round"/>

  <!-- Footer Link -->
  <text x="16" y="815" fill="#6419E6" font-family="Geist Sans, sans-serif" font-weight="bold" font-size="10">SETTLEMENT PLANS</text>
  <text x="374" y="815" fill="#586170" font-family="Geist Sans, sans-serif" font-weight="bold" font-size="9" text-anchor="end">SECURE GATEWAY</text>
</svg>
