<svg width="1440" height="900" viewBox="0 0 1440 900" fill="none" xmlns="http://www.w3.org/2000/svg">
  <!-- Background -->
  <rect width="1440" height="900" fill="#1D232A"/>
  
  <!-- Navigation Bar -->
  <rect width="1440" height="72" fill="#1D232A" fill-opacity="0.5"/>
  <line x1="0" y1="72" x2="1440" y2="72" stroke="#2A323C"/>
  <text x="80" y="44" fill="white" font-family="Geist Sans" font-weight="bold" font-size="20">🐲 Dragun</text>
  <rect x="1300" y="20" width="100" height="32" rx="8" fill="#2A323C"/>
  <text x="1350" y="41" fill="#A6ADBB" font-family="Geist Sans" font-size="12" text-anchor="middle">Merchant</text>

  <!-- Dashboard Content -->
  <text x="80" y="130" fill="white" font-family="Geist Sans" font-weight="bold" font-size="32">Dashboard</text>
  <text x="80" y="155" fill="#A6ADBB" font-family="Geist Sans" font-size="14">Monitor and manage your active debt recoveries.</text>

  <!-- Stats Grid -->
  <!-- Stats Card 1 -->
  <rect x="80" y="200" width="300" height="120" rx="16" fill="#191E24" stroke="#2A323C"/>
  <rect x="80" y="200" width="4" height="120" rx="2" fill="#6419E6"/>
  <text x="100" y="235" fill="#586170" font-family="Geist Sans" font-weight="bold" font-size="10">OUTSTANDING</text>
  <text x="100" y="275" fill="white" font-family="Geist Sans" font-weight="bold" font-size="28">$1,250,400</text>
  
  <!-- Stats Card 2 -->
  <rect x="410" y="200" width="300" height="120" rx="16" fill="#191E24" stroke="#2A323C"/>
  <rect x="410" y="200" width="4" height="120" rx="2" fill="#36D399"/>
  <text x="430" y="235" fill="#586170" font-family="Geist Sans" font-weight="bold" font-size="10">RECOVERED</text>
  <text x="430" y="275" fill="white" font-family="Geist Sans" font-weight="bold" font-size="28">$450,200</text>

  <!-- Stats Card 3 -->
  <rect x="740" y="200" width="300" height="120" rx="16" fill="#191E24" stroke="#2A323C"/>
  <rect x="740" y="200" width="4" height="120" rx="2" fill="#1FB2A6"/>
  <text x="760" y="235" fill="#586170" font-family="Geist Sans" font-weight="bold" font-size="10">ACTIVE CHATS</text>
  <text x="760" y="275" fill="white" font-family="Geist Sans" font-weight="bold" font-size="28">142</text>

  <!-- Stats Card 4 -->
  <rect x="1070" y="200" width="290" height="120" rx="16" fill="#191E24" stroke="#2A323C"/>
  <rect x="1070" y="200" width="4" height="120" rx="2" fill="#D926A9"/>
  <text x="1090" y="235" fill="#586170" font-family="Geist Sans" font-weight="bold" font-size="10">AVG SETTLEMENT</text>
  <text x="1090" y="275" fill="white" font-family="Geist Sans" font-weight="bold" font-size="28">82%</text>

  <!-- Left Column: Controls -->
  <rect x="80" y="350" width="400" height="300" rx="16" fill="#1D232A" stroke="#2A323C" stroke-opacity="0.6"/>
  <text x="110" y="390" fill="white" font-family="Geist Sans" font-weight="bold" font-size="18">Agent Parameters</text>
  
  <text x="110" y="435" fill="#586170" font-family="Geist Sans" font-size="12">Strictness Level</text>
  <rect x="110" y="450" width="340" height="4" rx="2" fill="#2A323C"/>
  <circle cx="280" cy="452" r="8" fill="#6419E6"/>
  
  <rect x="110" y="550" width="340" height="48" rx="12" fill="#6419E6"/>
  <text x="280" y="580" fill="white" font-family="Geist Sans" font-weight="bold" font-size="14" text-anchor="middle">Apply Updates</text>

  <!-- Right Column: Recovery Pipeline -->
  <rect x="510" y="350" width="850" height="500" rx="16" fill="#1D232A" stroke="#2A323C" stroke-opacity="0.6"/>
  <rect x="510" y="350" width="850" height="64" rx="16" fill="#2A323C" fill-opacity="0.2"/>
  <text x="540" y="390" fill="white" font-family="Geist Sans" font-weight="bold" font-size="20">Active Recoveries</text>
  
  <!-- Table Header -->
  <text x="540" y="445" fill="#586170" font-family="Geist Sans" font-weight="bold" font-size="10">DEBTOR DETAILS</text>
  <text x="800" y="445" fill="#586170" font-family="Geist Sans" font-weight="bold" font-size="10">EXPOSURE</text>
  <text x="1000" y="445" fill="#586170" font-family="Geist Sans" font-weight="bold" font-size="10">AGENT STATUS</text>
  
  <!-- Table Row 1 -->
  <circle cx="560" cy="495" r="20" fill="#2A323C"/>
  <text x="560" y="500" fill="#A6ADBB" font-family="Geist Sans" font-weight="bold" font-size="14" text-anchor="middle">J</text>
  <text x="595" y="490" fill="white" font-family="Geist Sans" font-weight="bold" font-size="14">John Smith</text>
  <text x="595" y="508" fill="#586170" font-family="Geist Sans" font-size="11">john@example.com</text>
  
  <text x="800" y="495" fill="white" font-family="Geist Sans" font-weight="bold" font-size="14">$1,250.00</text>
  
  <rect x="1000" y="483" width="80" height="24" rx="12" fill="#36D399" fill-opacity="0.1" stroke="#36D399" stroke-opacity="0.2"/>
  <text x="1040" y="500" fill="#36D399" font-family="Geist Sans" font-weight="bold" font-size="9" text-anchor="middle">NEGOTIATING</text>
  
  <rect x="1200" y="478" width="120" height="34" rx="10" fill="transparent" stroke="#2A323C"/>
  <text x="1260" y="500" fill="white" font-family="Geist Sans" font-weight="bold" font-size="11" text-anchor="middle">JOIN AI</text>
</svg>
